<svg width="1232" height="129" viewBox="0 0 1232 129" fill="none" xmlns="http://www.w3.org/2000/svg">
<rect y="53" width="1232" height="22" rx="11" fill="url(#paint0_linear_417_4)"/>
<path d="M17.3259 5.19553H22.413V31H18.5424L7.4833 15.2224V31H2.39613V5.19553H6.2668L17.3259 20.9363V5.19553ZM30.2595 23.7379C30.8985 26.048 32.631 27.2031 35.4572 27.2031C37.2758 27.2031 38.6521 26.5887 39.586 25.3599L43.4198 27.5717C41.6012 30.2013 38.9224 31.5161 35.3835 31.5161C32.3361 31.5161 29.8908 30.5945 28.0477 28.7513C26.2045 26.9081 25.2829 24.5857 25.2829 21.7841C25.2829 19.0071 26.1922 16.697 28.0108 14.8538C29.8294 12.986 32.1641 12.0521 35.0149 12.0521C37.7182 12.0521 39.9423 12.986 41.6872 14.8538C43.4566 16.7215 44.3413 19.0316 44.3413 21.7841C44.3413 22.3985 44.2799 23.0498 44.157 23.7379H30.2595ZM30.1858 20.0515H39.586C39.3156 18.7982 38.7504 17.8643 37.8902 17.2499C37.0547 16.6355 36.0962 16.3283 35.0149 16.3283C33.7369 16.3283 32.6802 16.6601 31.8446 17.3236C31.009 17.9626 30.4561 18.8719 30.1858 20.0515ZM60.8985 12.5682H65.5433V30.1153C65.5433 32.9661 64.5972 35.141 62.7049 36.6401C60.8371 38.1392 58.5761 38.8888 55.922 38.8888C53.9313 38.8888 52.1742 38.5079 50.6505 37.746C49.1514 36.9842 47.9963 35.866 47.1853 34.3914L51.2403 32.069C52.1742 33.7893 53.7839 34.6495 56.0694 34.6495C57.5685 34.6495 58.7482 34.2563 59.6083 33.4699C60.4685 32.6834 60.8985 31.5652 60.8985 30.1153V28.1246C59.4977 29.9924 57.5317 30.9263 55.0004 30.9263C52.3954 30.9263 50.2081 30.017 48.4387 28.1984C46.6938 26.3552 45.8214 24.1188 45.8214 21.4892C45.8214 18.8842 46.7061 16.6601 48.4755 14.8169C50.245 12.9737 52.4199 12.0521 55.0004 12.0521C57.5317 12.0521 59.4977 12.986 60.8985 14.8538V12.5682ZM52.0144 25.1387C52.9975 26.0726 54.2385 26.5395 55.7377 26.5395C57.2368 26.5395 58.4656 26.0726 59.424 25.1387C60.407 24.1802 60.8985 22.9638 60.8985 21.4892C60.8985 20.0392 60.407 18.8473 59.424 17.9134C58.4656 16.955 57.2368 16.4758 55.7377 16.4758C54.2385 16.4758 52.9975 16.955 52.0144 17.9134C51.056 18.8473 50.5768 20.0392 50.5768 21.4892C50.5768 22.9638 51.056 24.1802 52.0144 25.1387ZM83.1264 12.5682H87.8818V31H83.1264V28.8251C81.701 30.6191 79.6981 31.5161 77.1176 31.5161C74.6601 31.5161 72.5466 30.5822 70.7771 28.7145C69.0322 26.8221 68.1598 24.512 68.1598 21.7841C68.1598 19.0562 69.0322 16.7584 70.7771 14.8906C72.5466 12.9983 74.6601 12.0521 77.1176 12.0521C79.6981 12.0521 81.701 12.9492 83.1264 14.7432V12.5682ZM74.3529 25.5442C75.3113 26.5026 76.5278 26.9819 78.0024 26.9819C79.4769 26.9819 80.6934 26.5026 81.6518 25.5442C82.6349 24.5612 83.1264 23.3078 83.1264 21.7841C83.1264 20.2604 82.6349 19.0194 81.6518 18.0609C80.6934 17.0779 79.4769 16.5864 78.0024 16.5864C76.5278 16.5864 75.3113 17.0779 74.3529 18.0609C73.3944 19.0194 72.9152 20.2604 72.9152 21.7841C72.9152 23.3078 73.3944 24.5612 74.3529 25.5442ZM102 17.1393H97.8341V24.8069C97.8341 25.4459 97.9938 25.9128 98.3133 26.2077C98.6328 26.5026 99.0997 26.6747 99.7141 26.7238C100.329 26.7484 101.09 26.7361 102 26.687V31C98.7311 31.3686 96.421 31.0614 95.0693 30.0784C93.7422 29.0954 93.0787 27.3382 93.0787 24.8069V17.1393H89.8715V12.5682H93.0787V8.84502L97.8341 7.40734V12.5682H102V17.1393ZM106.974 10.3564C106.188 10.3564 105.5 10.0738 104.91 9.50856C104.345 8.91875 104.062 8.23063 104.062 7.44421C104.062 6.65778 104.345 5.96967 104.91 5.37985C105.5 4.79003 106.188 4.49512 106.974 4.49512C107.785 4.49512 108.474 4.79003 109.039 5.37985C109.629 5.96967 109.924 6.65778 109.924 7.44421C109.924 8.23063 109.629 8.91875 109.039 9.50856C108.474 10.0738 107.785 10.3564 106.974 10.3564ZM104.615 31V12.5682H109.371V31H104.615ZM125.114 12.5682H130.349L123.344 31H117.926L110.921 12.5682H116.156L120.617 25.4705L125.114 12.5682ZM135.202 23.7379C135.841 26.048 137.574 27.2031 140.4 27.2031C142.219 27.2031 143.595 26.5887 144.529 25.3599L148.363 27.5717C146.544 30.2013 143.865 31.5161 140.326 31.5161C137.279 31.5161 134.834 30.5945 132.991 28.7513C131.147 26.9081 130.226 24.5857 130.226 21.7841C130.226 19.0071 131.135 16.697 132.954 14.8538C134.772 12.986 137.107 12.0521 139.958 12.0521C142.661 12.0521 144.885 12.986 146.63 14.8538C148.4 16.7215 149.284 19.0316 149.284 21.7841C149.284 22.3985 149.223 23.0498 149.1 23.7379H135.202ZM135.129 20.0515H144.529C144.259 18.7982 143.693 17.8643 142.833 17.2499C141.998 16.6355 141.039 16.3283 139.958 16.3283C138.68 16.3283 137.623 16.6601 136.788 17.3236C135.952 17.9626 135.399 18.8719 135.129 20.0515Z" fill="white"/>
<path d="M1117.74 5.19553C1120.23 5.19553 1122.32 6.0311 1124.01 7.70225C1125.71 9.3734 1126.55 11.4255 1126.55 13.8585C1126.55 16.2915 1125.71 18.3435 1124.01 20.0147C1122.32 21.6858 1120.23 22.5214 1117.74 22.5214H1113.21V31H1108.12V5.19553H1117.74ZM1117.74 17.766C1118.83 17.766 1119.72 17.3974 1120.44 16.6601C1121.15 15.8982 1121.5 14.9644 1121.5 13.8585C1121.5 12.728 1121.15 11.7941 1120.44 11.0568C1119.72 10.3196 1118.83 9.95093 1117.74 9.95093H1113.21V17.766H1117.74ZM1143.39 28.7145C1141.5 30.5822 1139.19 31.5161 1136.46 31.5161C1133.73 31.5161 1131.42 30.5822 1129.53 28.7145C1127.66 26.8221 1126.73 24.512 1126.73 21.7841C1126.73 19.0562 1127.66 16.7584 1129.53 14.8906C1131.42 12.9983 1133.73 12.0521 1136.46 12.0521C1139.19 12.0521 1141.5 12.9983 1143.39 14.8906C1145.28 16.7584 1146.23 19.0562 1146.23 21.7841C1146.23 24.512 1145.28 26.8221 1143.39 28.7145ZM1132.88 25.4336C1133.84 26.3921 1135.03 26.8713 1136.46 26.8713C1137.88 26.8713 1139.07 26.3921 1140.03 25.4336C1140.99 24.4752 1141.47 23.2587 1141.47 21.7841C1141.47 20.3096 1140.99 19.0931 1140.03 18.1346C1139.07 17.1762 1137.88 16.697 1136.46 16.697C1135.03 16.697 1133.84 17.1762 1132.88 18.1346C1131.95 19.0931 1131.48 20.3096 1131.48 21.7841C1131.48 23.2587 1131.95 24.4752 1132.88 25.4336ZM1152.83 17.8029C1152.83 18.2944 1153.14 18.6999 1153.78 19.0194C1154.45 19.3143 1155.25 19.5846 1156.18 19.8304C1157.11 20.0515 1158.05 20.3464 1158.98 20.7151C1159.92 21.0591 1160.7 21.649 1161.34 22.4845C1162 23.3201 1162.34 24.3646 1162.34 25.6179C1162.34 27.5103 1161.62 28.9725 1160.2 30.0047C1158.8 31.0123 1157.04 31.5161 1154.93 31.5161C1151.14 31.5161 1148.56 30.0538 1147.19 27.1293L1151.31 24.8069C1151.85 26.4043 1153.06 27.2031 1154.93 27.2031C1156.62 27.2031 1157.47 26.6747 1157.47 25.6179C1157.47 25.1264 1157.14 24.7332 1156.47 24.4383C1155.84 24.1188 1155.05 23.8362 1154.12 23.5904C1153.18 23.3447 1152.25 23.0375 1151.31 22.6688C1150.38 22.3002 1149.58 21.7227 1148.92 20.9363C1148.28 20.1253 1147.96 19.1177 1147.96 17.9134C1147.96 16.0948 1148.62 14.6695 1149.95 13.6373C1151.3 12.5805 1152.97 12.0521 1154.96 12.0521C1156.46 12.0521 1157.83 12.3962 1159.06 13.0843C1160.28 13.7479 1161.25 14.7063 1161.97 15.9597L1157.91 18.1715C1157.32 16.9181 1156.34 16.2915 1154.96 16.2915C1154.35 16.2915 1153.83 16.4266 1153.42 16.697C1153.02 16.9673 1152.83 17.3359 1152.83 17.8029ZM1167.02 10.3564C1166.23 10.3564 1165.54 10.0738 1164.95 9.50856C1164.39 8.91875 1164.1 8.23063 1164.1 7.44421C1164.1 6.65778 1164.39 5.96967 1164.95 5.37985C1165.54 4.79003 1166.23 4.49512 1167.02 4.49512C1167.83 4.49512 1168.52 4.79003 1169.08 5.37985C1169.67 5.96967 1169.97 6.65778 1169.97 7.44421C1169.97 8.23063 1169.67 8.91875 1169.08 9.50856C1168.52 10.0738 1167.83 10.3564 1167.02 10.3564ZM1164.66 31V12.5682H1169.41V31H1164.66ZM1183.57 17.1393H1179.4V24.8069C1179.4 25.4459 1179.56 25.9128 1179.88 26.2077C1180.2 26.5026 1180.67 26.6747 1181.29 26.7238C1181.9 26.7484 1182.66 26.7361 1183.57 26.687V31C1180.3 31.3686 1177.99 31.0614 1176.64 30.0784C1175.31 29.0954 1174.65 27.3382 1174.65 24.8069V17.1393H1171.44V12.5682H1174.65V8.84502L1179.4 7.40734V12.5682H1183.57V17.1393ZM1188.55 10.3564C1187.76 10.3564 1187.07 10.0738 1186.48 9.50856C1185.92 8.91875 1185.63 8.23063 1185.63 7.44421C1185.63 6.65778 1185.92 5.96967 1186.48 5.37985C1187.07 4.79003 1187.76 4.49512 1188.55 4.49512C1189.36 4.49512 1190.04 4.79003 1190.61 5.37985C1191.2 5.96967 1191.49 6.65778 1191.49 7.44421C1191.49 8.23063 1191.2 8.91875 1190.61 9.50856C1190.04 10.0738 1189.36 10.3564 1188.55 10.3564ZM1186.19 31V12.5682H1190.94V31H1186.19ZM1206.68 12.5682H1211.92L1204.92 31H1199.5L1192.49 12.5682H1197.73L1202.19 25.4705L1206.68 12.5682ZM1216.77 23.7379C1217.41 26.048 1219.14 27.2031 1221.97 27.2031C1223.79 27.2031 1225.17 26.5887 1226.1 25.3599L1229.93 27.5717C1228.12 30.2013 1225.44 31.5161 1221.9 31.5161C1218.85 31.5161 1216.4 30.5945 1214.56 28.7513C1212.72 26.9081 1211.8 24.5857 1211.8 21.7841C1211.8 19.0071 1212.71 16.697 1214.52 14.8538C1216.34 12.986 1218.68 12.0521 1221.53 12.0521C1224.23 12.0521 1226.46 12.986 1228.2 14.8538C1229.97 16.7215 1230.86 19.0316 1230.86 21.7841C1230.86 22.3985 1230.79 23.0498 1230.67 23.7379H1216.77ZM1216.7 20.0515H1226.1C1225.83 18.7982 1225.26 17.8643 1224.4 17.2499C1223.57 16.6355 1222.61 16.3283 1221.53 16.3283C1220.25 16.3283 1219.19 16.6601 1218.36 17.3236C1217.52 17.9626 1216.97 18.8719 1216.7 20.0515Z" fill="white"/>
<path opacity="0.5" d="M616.392 118.516C613.173 118.516 610.642 117.3 608.798 114.867C606.98 112.409 606.071 109.153 606.071 105.098C606.071 101.043 606.98 97.7988 608.798 95.3658C610.642 92.9082 613.173 91.6794 616.392 91.6794C619.636 91.6794 622.168 92.9082 623.986 95.3658C625.805 97.7988 626.714 101.043 626.714 105.098C626.714 109.153 625.805 112.409 623.986 114.867C622.168 117.3 619.636 118.516 616.392 118.516ZM612.485 111.401C613.369 112.827 614.672 113.54 616.392 113.54C618.113 113.54 619.415 112.815 620.3 111.365C621.209 109.915 621.664 107.826 621.664 105.098C621.664 102.345 621.209 100.244 620.3 98.7941C619.415 97.3441 618.113 96.6192 616.392 96.6192C614.672 96.6192 613.369 97.3441 612.485 98.7941C611.6 100.244 611.158 102.345 611.158 105.098C611.158 107.85 611.6 109.951 612.485 111.401Z" fill="white"/>
<path opacity="0.5" d="M1179.97 92.1955H1184.39V118H1179.3V97.5776L1174.44 98.9416L1173.18 94.5917L1179.97 92.1955ZM1197.91 118.516C1194.69 118.516 1192.16 117.3 1190.32 114.867C1188.5 112.409 1187.59 109.153 1187.59 105.098C1187.59 101.043 1188.5 97.7988 1190.32 95.3658C1192.16 92.9082 1194.69 91.6794 1197.91 91.6794C1201.15 91.6794 1203.69 92.9082 1205.5 95.3658C1207.32 97.7988 1208.23 101.043 1208.23 105.098C1208.23 109.153 1207.32 112.409 1205.5 114.867C1203.69 117.3 1201.15 118.516 1197.91 118.516ZM1194 111.401C1194.89 112.827 1196.19 113.54 1197.91 113.54C1199.63 113.54 1200.93 112.815 1201.82 111.365C1202.73 109.915 1203.18 107.826 1203.18 105.098C1203.18 102.345 1202.73 100.244 1201.82 98.7941C1200.93 97.3441 1199.63 96.6192 1197.91 96.6192C1196.19 96.6192 1194.89 97.3441 1194 98.7941C1193.12 100.244 1192.68 102.345 1192.68 105.098C1192.68 107.85 1193.12 109.951 1194 111.401ZM1220.39 118.516C1217.17 118.516 1214.64 117.3 1212.8 114.867C1210.98 112.409 1210.07 109.153 1210.07 105.098C1210.07 101.043 1210.98 97.7988 1212.8 95.3658C1214.64 92.9082 1217.17 91.6794 1220.39 91.6794C1223.64 91.6794 1226.17 92.9082 1227.99 95.3658C1229.8 97.7988 1230.71 101.043 1230.71 105.098C1230.71 109.153 1229.8 112.409 1227.99 114.867C1226.17 117.3 1223.64 118.516 1220.39 118.516ZM1216.48 111.401C1217.37 112.827 1218.67 113.54 1220.39 113.54C1222.11 113.54 1223.42 112.815 1224.3 111.365C1225.21 109.915 1225.66 107.826 1225.66 105.098C1225.66 102.345 1225.21 100.244 1224.3 98.7941C1223.42 97.3441 1222.11 96.6192 1220.39 96.6192C1218.67 96.6192 1217.37 97.3441 1216.48 98.7941C1215.6 100.244 1215.16 102.345 1215.16 105.098C1215.16 107.85 1215.6 109.951 1216.48 111.401Z" fill="white"/>
<path opacity="0.5" d="M2.39613 109.153V104.582H16.22V109.153H2.39613ZM25.0629 92.1955H29.4865V118H24.3993V97.5776L19.5333 98.9416L18.28 94.5917L25.0629 92.1955ZM43.005 118.516C39.7856 118.516 37.2543 117.3 35.4112 114.867C33.5926 112.409 32.6833 109.153 32.6833 105.098C32.6833 101.043 33.5926 97.7988 35.4112 95.3658C37.2543 92.9082 39.7856 91.6794 43.005 91.6794C46.249 91.6794 48.7803 92.9082 50.5989 95.3658C52.4175 97.7988 53.3268 101.043 53.3268 105.098C53.3268 109.153 52.4175 112.409 50.5989 114.867C48.7803 117.3 46.249 118.516 43.005 118.516ZM39.0975 111.401C39.9822 112.827 41.2847 113.54 43.005 113.54C44.7253 113.54 46.0279 112.815 46.9126 111.365C47.8219 109.915 48.2765 107.826 48.2765 105.098C48.2765 102.345 47.8219 100.244 46.9126 98.7941C46.0279 97.3441 44.7253 96.6192 43.005 96.6192C41.2847 96.6192 39.9822 97.3441 39.0975 98.7941C38.2128 100.244 37.7704 102.345 37.7704 105.098C37.7704 107.85 38.2128 109.951 39.0975 111.401ZM65.4875 118.516C62.2681 118.516 59.7368 117.3 57.8936 114.867C56.075 112.409 55.1657 109.153 55.1657 105.098C55.1657 101.043 56.075 97.7988 57.8936 95.3658C59.7368 92.9082 62.2681 91.6794 65.4875 91.6794C68.7315 91.6794 71.2628 92.9082 73.0814 95.3658C74.9 97.7988 75.8093 101.043 75.8093 105.098C75.8093 109.153 74.9 112.409 73.0814 114.867C71.2628 117.3 68.7315 118.516 65.4875 118.516ZM61.5799 111.401C62.4647 112.827 63.7672 113.54 65.4875 113.54C67.2078 113.54 68.5103 112.815 69.395 111.365C70.3043 109.915 70.759 107.826 70.759 105.098C70.759 102.345 70.3043 100.244 69.395 98.7941C68.5103 97.3441 67.2078 96.6192 65.4875 96.6192C63.7672 96.6192 62.4647 97.3441 61.5799 98.7941C60.6952 100.244 60.2529 102.345 60.2529 105.098C60.2529 107.85 60.6952 109.951 61.5799 111.401Z" fill="white"/>
<path d="M580.636 31.5161C578.08 31.5161 575.929 30.9508 574.185 29.8204C572.44 28.6653 571.211 27.1048 570.498 25.1387L574.848 22.5951C575.856 25.2247 577.834 26.5395 580.783 26.5395C582.209 26.5395 583.253 26.2815 583.917 25.7654C584.58 25.2493 584.912 24.598 584.912 23.8116C584.912 22.9023 584.506 22.2019 583.695 21.7104C582.884 21.1943 581.434 20.6413 579.345 20.0515C578.19 19.7075 577.207 19.3634 576.396 19.0194C575.61 18.6753 574.811 18.2206 574 17.6554C573.214 17.0656 572.612 16.3283 572.194 15.4436C571.776 14.5589 571.567 13.5267 571.567 12.3471C571.567 10.0124 572.391 8.1569 574.037 6.78066C575.708 5.37985 577.711 4.67944 580.046 4.67944C582.135 4.67944 583.966 5.19553 585.539 6.22771C587.136 7.23531 588.377 8.64841 589.262 10.467L584.986 12.9369C583.953 10.7251 582.307 9.61915 580.046 9.61915C578.989 9.61915 578.154 9.86491 577.539 10.3564C576.949 10.8234 576.654 11.4378 576.654 12.1996C576.654 13.0106 576.986 13.6741 577.65 14.1902C578.338 14.6817 579.64 15.2224 581.557 15.8122C582.344 16.058 582.934 16.2546 583.327 16.402C583.745 16.5249 584.297 16.7338 584.986 17.0287C585.698 17.2991 586.239 17.5571 586.608 17.8029C587.001 18.0486 587.443 18.3804 587.935 18.7982C588.426 19.216 588.795 19.646 589.041 20.0884C589.311 20.5308 589.532 21.0714 589.704 21.7104C589.901 22.3248 589.999 23.0006 589.999 23.7379C589.999 26.1217 589.127 28.0141 587.382 29.4149C585.661 30.8157 583.413 31.5161 580.636 31.5161ZM601.636 31.5161C598.859 31.5161 596.537 30.5822 594.669 28.7145C592.826 26.8467 591.904 24.5366 591.904 21.7841C591.904 19.0316 592.826 16.7215 594.669 14.8538C596.537 12.986 598.859 12.0521 601.636 12.0521C603.43 12.0521 605.064 12.4822 606.539 13.3424C608.013 14.2025 609.132 15.3576 609.894 16.8075L605.802 19.2037C605.433 18.4418 604.868 17.8397 604.106 17.3974C603.369 16.955 602.533 16.7338 601.599 16.7338C600.174 16.7338 598.994 17.213 598.06 18.1715C597.126 19.1054 596.66 20.3096 596.66 21.7841C596.66 23.2341 597.126 24.4383 598.06 25.3967C598.994 26.3306 600.174 26.7976 601.599 26.7976C602.558 26.7976 603.406 26.5887 604.143 26.1709C604.905 25.7285 605.47 25.1264 605.839 24.3646L609.967 26.7238C609.156 28.1738 608.013 29.3411 606.539 30.2259C605.064 31.086 603.43 31.5161 601.636 31.5161ZM627.161 28.7145C625.269 30.5822 622.958 31.5161 620.231 31.5161C617.503 31.5161 615.193 30.5822 613.3 28.7145C611.432 26.8221 610.499 24.512 610.499 21.7841C610.499 19.0562 611.432 16.7584 613.3 14.8906C615.193 12.9983 617.503 12.0521 620.231 12.0521C622.958 12.0521 625.269 12.9983 627.161 14.8906C629.053 16.7584 629.999 19.0562 629.999 21.7841C629.999 24.512 629.053 26.8221 627.161 28.7145ZM616.655 25.4336C617.613 26.3921 618.805 26.8713 620.231 26.8713C621.656 26.8713 622.848 26.3921 623.806 25.4336C624.765 24.4752 625.244 23.2587 625.244 21.7841C625.244 20.3096 624.765 19.0931 623.806 18.1346C622.848 17.1762 621.656 16.697 620.231 16.697C618.805 16.697 617.613 17.1762 616.655 18.1346C615.721 19.0931 615.254 20.3096 615.254 21.7841C615.254 23.2587 615.721 24.4752 616.655 25.4336ZM637.363 15.7385C637.805 14.5589 638.53 13.6741 639.538 13.0843C640.57 12.4945 641.713 12.1996 642.966 12.1996V17.5079C641.516 17.3359 640.214 17.6308 639.059 18.3927C637.928 19.1545 637.363 20.4202 637.363 22.1896V31H632.607V12.5682H637.363V15.7385ZM648.344 23.7379C648.983 26.048 650.716 27.2031 653.542 27.2031C655.361 27.2031 656.737 26.5887 657.671 25.3599L661.504 27.5717C659.686 30.2013 657.007 31.5161 653.468 31.5161C650.421 31.5161 647.976 30.5945 646.132 28.7513C644.289 26.9081 643.368 24.5857 643.368 21.7841C643.368 19.0071 644.277 16.697 646.096 14.8538C647.914 12.986 650.249 12.0521 653.1 12.0521C655.803 12.0521 658.027 12.986 659.772 14.8538C661.541 16.7215 662.426 19.0316 662.426 21.7841C662.426 22.3985 662.365 23.0498 662.242 23.7379H648.344ZM648.27 20.0515H657.671C657.4 18.7982 656.835 17.8643 655.975 17.2499C655.139 16.6355 654.181 16.3283 653.1 16.3283C651.822 16.3283 650.765 16.6601 649.929 17.3236C649.094 17.9626 648.541 18.8719 648.27 20.0515Z" fill="white"/>
<defs>
<linearGradient id="paint0_linear_417_4" x1="-11" y1="63.9991" x2="1241" y2="63.9993" gradientUnits="userSpaceOnUse">
<stop stop-color="#FF3030"/>
<stop offset="0.5" stop-color="white"/>
<stop offset="1" stop-color="#6EDA53"/>
</linearGradient>
</defs>
</svg>
