<svg width="1232" height="129" viewBox="0 0 1232 129" fill="none" xmlns="http://www.w3.org/2000/svg">
<path d="M1221 53H11C4.92487 53 0 57.9249 0 64C0 70.0751 4.92487 75 11 75H1221C1227.08 75 1232 70.0751 1232 64C1232 57.9249 1227.08 53 1221 53Z" fill="url(#paint0_linear_623_10)"/>
<path d="M17.3263 5.19553H22.4134V31H18.5428L7.48365 15.2224V31H2.39648V5.19553H6.26715L17.3263 20.9363V5.19553ZM30.2599 23.7379C30.8989 26.048 32.6314 27.2031 35.4576 27.2031C37.2762 27.2031 38.6525 26.5887 39.5864 25.3599L43.4202 27.5717C41.6016 30.2013 38.9228 31.5161 35.3839 31.5161C32.3365 31.5161 29.8912 30.5945 28.0481 28.7513C26.2049 26.9081 25.2833 24.5857 25.2833 21.7841C25.2833 19.0071 26.1926 16.697 28.0112 14.8538C29.8298 12.986 32.1645 12.0521 35.0153 12.0521C37.7186 12.0521 39.9427 12.986 41.6876 14.8538C43.457 16.7215 44.3417 19.0316 44.3417 21.7841C44.3417 22.3985 44.2803 23.0498 44.1574 23.7379H30.2599ZM30.1862 20.0515H39.5864C39.316 18.7982 38.7508 17.8643 37.8906 17.2499C37.0551 16.6355 36.0966 16.3283 35.0153 16.3283C33.7373 16.3283 32.6806 16.6601 31.845 17.3236C31.0094 17.9626 30.4565 18.8719 30.1862 20.0515ZM60.8989 12.5682H65.5437V30.1153C65.5437 32.9661 64.5976 35.141 62.7053 36.6401C60.8375 38.1392 58.5765 38.8888 55.9224 38.8888C53.9317 38.8888 52.1746 38.5079 50.6509 37.746C49.1518 36.9842 47.9967 35.866 47.1857 34.3914L51.2407 32.069C52.1746 33.7893 53.7843 34.6495 56.0698 34.6495C57.5689 34.6495 58.7486 34.2563 59.6087 33.4699C60.4689 32.6834 60.8989 31.5652 60.8989 30.1153V28.1246C59.4981 29.9924 57.5321 30.9263 55.0008 30.9263C52.3958 30.9263 50.2085 30.017 48.4391 28.1984C46.6942 26.3552 45.8218 24.1188 45.8218 21.4892C45.8218 18.8842 46.7065 16.6601 48.4759 14.8169C50.2454 12.9737 52.4203 12.0521 55.0008 12.0521C57.5321 12.0521 59.4981 12.986 60.8989 14.8538V12.5682ZM52.0148 25.1387C52.9979 26.0726 54.2389 26.5395 55.7381 26.5395C57.2372 26.5395 58.466 26.0726 59.4244 25.1387C60.4074 24.1802 60.8989 22.9638 60.8989 21.4892C60.8989 20.0392 60.4074 18.8473 59.4244 17.9134C58.466 16.955 57.2372 16.4758 55.7381 16.4758C54.2389 16.4758 52.9979 16.955 52.0148 17.9134C51.0564 18.8473 50.5772 20.0392 50.5772 21.4892C50.5772 22.9638 51.0564 24.1802 52.0148 25.1387ZM83.1268 12.5682H87.8821V31H83.1268V28.8251C81.7014 30.6191 79.6985 31.5161 77.118 31.5161C74.6605 31.5161 72.547 30.5822 70.7775 28.7145C69.0326 26.8221 68.1601 24.512 68.1601 21.7841C68.1601 19.0562 69.0326 16.7584 70.7775 14.8906C72.547 12.9983 74.6605 12.0521 77.118 12.0521C79.6985 12.0521 81.7014 12.9492 83.1268 14.7432V12.5682ZM74.3532 25.5442C75.3116 26.5026 76.5282 26.9819 78.0028 26.9819C79.4773 26.9819 80.6938 26.5026 81.6522 25.5442C82.6353 24.5612 83.1268 23.3078 83.1268 21.7841C83.1268 20.2604 82.6353 19.0194 81.6522 18.0609C80.6938 17.0779 79.4773 16.5864 78.0028 16.5864C76.5282 16.5864 75.3116 17.0779 74.3532 18.0609C73.3947 19.0194 72.9156 20.2604 72.9156 21.7841C72.9156 23.3078 73.3947 24.5612 74.3532 25.5442ZM102 17.1393H97.8344V24.8069C97.8344 25.4459 97.9942 25.9128 98.3137 26.2077C98.6332 26.5026 99.1001 26.6747 99.7145 26.7238C100.329 26.7484 101.09 26.7361 102 26.687V31C98.7315 31.3686 96.4213 31.0614 95.0696 30.0784C93.7425 29.0954 93.079 27.3382 93.079 24.8069V17.1393H89.8718V12.5682H93.079V8.84502L97.8344 7.40734V12.5682H102V17.1393ZM106.974 10.3564C106.188 10.3564 105.5 10.0738 104.91 9.50856C104.345 8.91875 104.062 8.23063 104.062 7.44421C104.062 6.65778 104.345 5.96967 104.91 5.37985C105.5 4.79003 106.188 4.49512 106.974 4.49512C107.785 4.49512 108.474 4.79003 109.039 5.37985C109.629 5.96967 109.924 6.65778 109.924 7.44421C109.924 8.23063 109.629 8.91875 109.039 9.50856C108.474 10.0738 107.785 10.3564 106.974 10.3564ZM104.615 31V12.5682H109.371V31H104.615ZM125.114 12.5682H130.349L123.344 31H117.926L110.921 12.5682H116.156L120.617 25.4705L125.114 12.5682ZM135.202 23.7379C135.841 26.048 137.574 27.2031 140.4 27.2031C142.219 27.2031 143.595 26.5887 144.529 25.3599L148.363 27.5717C146.544 30.2013 143.865 31.5161 140.326 31.5161C137.279 31.5161 134.834 30.5945 132.991 28.7513C131.147 26.9081 130.226 24.5857 130.226 21.7841C130.226 19.0071 131.135 16.697 132.954 14.8538C134.772 12.986 137.107 12.0521 139.958 12.0521C142.661 12.0521 144.885 12.986 146.63 14.8538C148.4 16.7215 149.284 19.0316 149.284 21.7841C149.284 22.3985 149.223 23.0498 149.1 23.7379H135.202ZM135.129 20.0515H144.529C144.259 18.7982 143.693 17.8643 142.833 17.2499C141.998 16.6355 141.039 16.3283 139.958 16.3283C138.68 16.3283 137.623 16.6601 136.788 17.3236C135.952 17.9626 135.399 18.8719 135.129 20.0515Z" fill="#FF3737"/>
<path d="M1117.74 5.19553C1120.23 5.19553 1122.32 6.0311 1124.01 7.70225C1125.71 9.3734 1126.55 11.4255 1126.55 13.8585C1126.55 16.2915 1125.71 18.3435 1124.01 20.0147C1122.32 21.6858 1120.23 22.5214 1117.74 22.5214H1113.21V31H1108.12V5.19553H1117.74ZM1117.74 17.766C1118.83 17.766 1119.72 17.3974 1120.44 16.6601C1121.15 15.8982 1121.5 14.9644 1121.5 13.8585C1121.5 12.728 1121.15 11.7941 1120.44 11.0568C1119.72 10.3196 1118.83 9.95093 1117.74 9.95093H1113.21V17.766H1117.74ZM1143.39 28.7145C1141.5 30.5822 1139.19 31.5161 1136.46 31.5161C1133.73 31.5161 1131.42 30.5822 1129.53 28.7145C1127.66 26.8221 1126.73 24.512 1126.73 21.7841C1126.73 19.0562 1127.66 16.7584 1129.53 14.8906C1131.42 12.9983 1133.73 12.0521 1136.46 12.0521C1139.19 12.0521 1141.5 12.9983 1143.39 14.8906C1145.28 16.7584 1146.23 19.0562 1146.23 21.7841C1146.23 24.512 1145.28 26.8221 1143.39 28.7145ZM1132.88 25.4336C1133.84 26.3921 1135.03 26.8713 1136.46 26.8713C1137.88 26.8713 1139.07 26.3921 1140.03 25.4336C1140.99 24.4752 1141.47 23.2587 1141.47 21.7841C1141.47 20.3096 1140.99 19.0931 1140.03 18.1346C1139.07 17.1762 1137.88 16.697 1136.46 16.697C1135.03 16.697 1133.84 17.1762 1132.88 18.1346C1131.95 19.0931 1131.48 20.3096 1131.48 21.7841C1131.48 23.2587 1131.95 24.4752 1132.88 25.4336ZM1152.83 17.8029C1152.83 18.2944 1153.14 18.6999 1153.78 19.0194C1154.45 19.3143 1155.25 19.5846 1156.18 19.8304C1157.11 20.0515 1158.05 20.3464 1158.98 20.7151C1159.92 21.0591 1160.7 21.649 1161.34 22.4845C1162 23.3201 1162.34 24.3646 1162.34 25.6179C1162.34 27.5103 1161.62 28.9725 1160.2 30.0047C1158.8 31.0123 1157.04 31.5161 1154.93 31.5161C1151.14 31.5161 1148.56 30.0538 1147.19 27.1293L1151.31 24.8069C1151.85 26.4043 1153.06 27.2031 1154.93 27.2031C1156.62 27.2031 1157.47 26.6747 1157.47 25.6179C1157.47 25.1264 1157.14 24.7332 1156.47 24.4383C1155.84 24.1188 1155.05 23.8362 1154.12 23.5904C1153.18 23.3447 1152.25 23.0375 1151.31 22.6688C1150.38 22.3002 1149.58 21.7227 1148.92 20.9363C1148.28 20.1253 1147.96 19.1177 1147.96 17.9134C1147.96 16.0948 1148.62 14.6695 1149.95 13.6373C1151.3 12.5805 1152.97 12.0521 1154.96 12.0521C1156.46 12.0521 1157.83 12.3962 1159.06 13.0843C1160.28 13.7479 1161.25 14.7063 1161.97 15.9597L1157.91 18.1715C1157.32 16.9181 1156.34 16.2915 1154.96 16.2915C1154.35 16.2915 1153.83 16.4266 1153.42 16.697C1153.02 16.9673 1152.83 17.3359 1152.83 17.8029ZM1167.02 10.3564C1166.23 10.3564 1165.54 10.0738 1164.95 9.50856C1164.39 8.91875 1164.1 8.23063 1164.1 7.44421C1164.1 6.65778 1164.39 5.96967 1164.95 5.37985C1165.54 4.79003 1166.23 4.49512 1167.02 4.49512C1167.83 4.49512 1168.52 4.79003 1169.08 5.37985C1169.67 5.96967 1169.97 6.65778 1169.97 7.44421C1169.97 8.23063 1169.67 8.91875 1169.08 9.50856C1168.52 10.0738 1167.83 10.3564 1167.02 10.3564ZM1164.66 31V12.5682H1169.41V31H1164.66ZM1183.57 17.1393H1179.4V24.8069C1179.4 25.4459 1179.56 25.9128 1179.88 26.2077C1180.2 26.5026 1180.67 26.6747 1181.29 26.7238C1181.9 26.7484 1182.66 26.7361 1183.57 26.687V31C1180.3 31.3686 1177.99 31.0614 1176.64 30.0784C1175.31 29.0954 1174.65 27.3382 1174.65 24.8069V17.1393H1171.44V12.5682H1174.65V8.84502L1179.4 7.40734V12.5682H1183.57V17.1393ZM1188.55 10.3564C1187.76 10.3564 1187.07 10.0738 1186.48 9.50856C1185.92 8.91875 1185.63 8.23063 1185.63 7.44421C1185.63 6.65778 1185.92 5.96967 1186.48 5.37985C1187.07 4.79003 1187.76 4.49512 1188.55 4.49512C1189.36 4.49512 1190.04 4.79003 1190.61 5.37985C1191.2 5.96967 1191.49 6.65778 1191.49 7.44421C1191.49 8.23063 1191.2 8.91875 1190.61 9.50856C1190.04 10.0738 1189.36 10.3564 1188.55 10.3564ZM1186.19 31V12.5682H1190.94V31H1186.19ZM1206.68 12.5682H1211.92L1204.92 31H1199.5L1192.49 12.5682H1197.73L1202.19 25.4705L1206.68 12.5682ZM1216.77 23.7379C1217.41 26.048 1219.14 27.2031 1221.97 27.2031C1223.79 27.2031 1225.17 26.5887 1226.1 25.3599L1229.93 27.5717C1228.12 30.2013 1225.44 31.5161 1221.9 31.5161C1218.85 31.5161 1216.4 30.5945 1214.56 28.7513C1212.72 26.9081 1211.8 24.5857 1211.8 21.7841C1211.8 19.0071 1212.71 16.697 1214.52 14.8538C1216.34 12.986 1218.68 12.0521 1221.53 12.0521C1224.23 12.0521 1226.46 12.986 1228.2 14.8538C1229.97 16.7215 1230.86 19.0316 1230.86 21.7841C1230.86 22.3985 1230.79 23.0498 1230.67 23.7379H1216.77ZM1216.7 20.0515H1226.1C1225.83 18.7982 1225.26 17.8643 1224.4 17.2499C1223.57 16.6355 1222.61 16.3283 1221.53 16.3283C1220.25 16.3283 1219.19 16.6601 1218.36 17.3236C1217.52 17.9626 1216.97 18.8719 1216.7 20.0515Z" fill="#71DB57"/>
<path opacity="0.2" d="M616.392 118.516C613.173 118.516 610.642 117.3 608.798 114.867C606.98 112.409 606.071 109.153 606.071 105.098C606.071 101.043 606.98 97.7986 608.798 95.3656C610.642 92.908 613.173 91.6792 616.392 91.6792C619.636 91.6792 622.168 92.908 623.986 95.3656C625.805 97.7986 626.714 101.043 626.714 105.098C626.714 109.153 625.805 112.409 623.986 114.867C622.168 117.3 619.636 118.516 616.392 118.516ZM612.485 111.401C613.369 112.827 614.672 113.54 616.392 113.54C618.113 113.54 619.415 112.815 620.3 111.365C621.209 109.915 621.664 107.826 621.664 105.098C621.664 102.345 621.209 100.244 620.3 98.7939C619.415 97.3439 618.113 96.619 616.392 96.619C614.672 96.619 613.369 97.3439 612.485 98.7939C611.6 100.244 611.158 102.345 611.158 105.098C611.158 107.85 611.6 109.951 612.485 111.401Z" fill="black"/>
<path opacity="0.2" d="M1179.97 92.1953H1184.39V118H1179.3V97.5774L1174.44 98.9414L1173.18 94.5915L1179.97 92.1953ZM1197.91 118.516C1194.69 118.516 1192.16 117.3 1190.32 114.867C1188.5 112.409 1187.59 109.153 1187.59 105.098C1187.59 101.043 1188.5 97.7986 1190.32 95.3656C1192.16 92.908 1194.69 91.6792 1197.91 91.6792C1201.15 91.6792 1203.69 92.908 1205.5 95.3656C1207.32 97.7986 1208.23 101.043 1208.23 105.098C1208.23 109.153 1207.32 112.409 1205.5 114.867C1203.69 117.3 1201.15 118.516 1197.91 118.516ZM1194 111.401C1194.89 112.827 1196.19 113.54 1197.91 113.54C1199.63 113.54 1200.93 112.815 1201.82 111.365C1202.73 109.915 1203.18 107.826 1203.18 105.098C1203.18 102.345 1202.73 100.244 1201.82 98.7939C1200.93 97.3439 1199.63 96.619 1197.91 96.619C1196.19 96.619 1194.89 97.3439 1194 98.7939C1193.12 100.244 1192.68 102.345 1192.68 105.098C1192.68 107.85 1193.12 109.951 1194 111.401ZM1220.39 118.516C1217.17 118.516 1214.64 117.3 1212.8 114.867C1210.98 112.409 1210.07 109.153 1210.07 105.098C1210.07 101.043 1210.98 97.7986 1212.8 95.3656C1214.64 92.908 1217.17 91.6792 1220.39 91.6792C1223.64 91.6792 1226.17 92.908 1227.99 95.3656C1229.8 97.7986 1230.71 101.043 1230.71 105.098C1230.71 109.153 1229.8 112.409 1227.99 114.867C1226.17 117.3 1223.64 118.516 1220.39 118.516ZM1216.48 111.401C1217.37 112.827 1218.67 113.54 1220.39 113.54C1222.11 113.54 1223.42 112.815 1224.3 111.365C1225.21 109.915 1225.66 107.826 1225.66 105.098C1225.66 102.345 1225.21 100.244 1224.3 98.7939C1223.42 97.3439 1222.11 96.619 1220.39 96.619C1218.67 96.619 1217.37 97.3439 1216.48 98.7939C1215.6 100.244 1215.16 102.345 1215.16 105.098C1215.16 107.85 1215.6 109.951 1216.48 111.401Z" fill="black"/>
<path opacity="0.2" d="M2.39648 109.153V104.582H16.2204V109.153H2.39648ZM25.0633 92.1953H29.4869V118H24.3997V97.5774L19.5337 98.9414L18.2804 94.5915L25.0633 92.1953ZM43.0054 118.516C39.786 118.516 37.2547 117.3 35.4116 114.867C33.593 112.409 32.6837 109.153 32.6837 105.098C32.6837 101.043 33.593 97.7986 35.4116 95.3656C37.2547 92.908 39.786 91.6792 43.0054 91.6792C46.2494 91.6792 48.7807 92.908 50.5993 95.3656C52.4179 97.7986 53.3272 101.043 53.3272 105.098C53.3272 109.153 52.4179 112.409 50.5993 114.867C48.7807 117.3 46.2494 118.516 43.0054 118.516ZM39.0979 111.401C39.9826 112.827 41.2851 113.54 43.0054 113.54C44.7257 113.54 46.0283 112.815 46.913 111.365C47.8223 109.915 48.2769 107.826 48.2769 105.098C48.2769 102.345 47.8223 100.244 46.913 98.7939C46.0283 97.3439 44.7257 96.619 43.0054 96.619C41.2851 96.619 39.9826 97.3439 39.0979 98.7939C38.2132 100.244 37.7708 102.345 37.7708 105.098C37.7708 107.85 38.2132 109.951 39.0979 111.401ZM65.4879 118.516C62.2685 118.516 59.7372 117.3 57.894 114.867C56.0754 112.409 55.1661 109.153 55.1661 105.098C55.1661 101.043 56.0754 97.7986 57.894 95.3656C59.7372 92.908 62.2685 91.6792 65.4879 91.6792C68.7319 91.6792 71.2631 92.908 73.0817 95.3656C74.9003 97.7986 75.8097 101.043 75.8097 105.098C75.8097 109.153 74.9003 112.409 73.0817 114.867C71.2631 117.3 68.7319 118.516 65.4879 118.516ZM61.5803 111.401C62.4651 112.827 63.7676 113.54 65.4879 113.54C67.2082 113.54 68.5106 112.815 69.3953 111.365C70.3046 109.915 70.7594 107.826 70.7594 105.098C70.7594 102.345 70.3046 100.244 69.3953 98.7939C68.5106 97.3439 67.2082 96.619 65.4879 96.619C63.7676 96.619 62.4651 97.3439 61.5803 98.7939C60.6956 100.244 60.2533 102.345 60.2533 105.098C60.2533 107.85 60.6956 109.951 61.5803 111.401Z" fill="black"/>
<path d="M580.636 31.5159C578.08 31.5159 575.929 30.9506 574.185 29.8202C572.44 28.6651 571.211 27.1046 570.498 25.1385L574.848 22.5949C575.856 25.2245 577.834 26.5393 580.783 26.5393C582.209 26.5393 583.253 26.2813 583.917 25.7652C584.58 25.2491 584.912 24.5978 584.912 23.8114C584.912 22.9021 584.506 22.2017 583.695 21.7102C582.884 21.1941 581.434 20.6411 579.345 20.0513C578.19 19.7073 577.207 19.3632 576.396 19.0192C575.61 18.6751 574.811 18.2204 574 17.6552C573.214 17.0654 572.612 16.3281 572.194 15.4434C571.776 14.5587 571.567 13.5265 571.567 12.3469C571.567 10.0122 572.391 8.15666 574.037 6.78042C575.708 5.37961 577.711 4.6792 580.046 4.6792C582.135 4.6792 583.966 5.19529 585.539 6.22747C587.136 7.23507 588.377 8.64817 589.262 10.4668L584.986 12.9367C583.953 10.7249 582.307 9.61891 580.046 9.61891C578.989 9.61891 578.154 9.86467 577.539 10.3562C576.949 10.8232 576.654 11.4376 576.654 12.1994C576.654 13.0104 576.986 13.6739 577.65 14.19C578.338 14.6815 579.64 15.2222 581.557 15.812C582.344 16.0578 582.934 16.2544 583.327 16.4018C583.745 16.5247 584.297 16.7336 584.986 17.0285C585.698 17.2989 586.239 17.5569 586.608 17.8027C587.001 18.0484 587.443 18.3802 587.935 18.798C588.426 19.2158 588.795 19.6458 589.041 20.0882C589.311 20.5306 589.532 21.0712 589.704 21.7102C589.901 22.3246 589.999 23.0004 589.999 23.7377C589.999 26.1215 589.127 28.0139 587.382 29.4147C585.661 30.8155 583.413 31.5159 580.636 31.5159ZM601.636 31.5159C598.859 31.5159 596.537 30.582 594.669 28.7143C592.826 26.8465 591.904 24.5364 591.904 21.7839C591.904 19.0314 592.826 16.7213 594.669 14.8536C596.537 12.9858 598.859 12.0519 601.636 12.0519C603.43 12.0519 605.064 12.482 606.539 13.3422C608.013 14.2023 609.132 15.3574 609.894 16.8073L605.802 19.2035C605.433 18.4416 604.868 17.8395 604.106 17.3972C603.369 16.9548 602.533 16.7336 601.599 16.7336C600.174 16.7336 598.994 17.2128 598.06 18.1713C597.126 19.1052 596.66 20.3094 596.66 21.7839C596.66 23.2339 597.126 24.4381 598.06 25.3965C598.994 26.3304 600.174 26.7974 601.599 26.7974C602.558 26.7974 603.406 26.5885 604.143 26.1707C604.905 25.7283 605.47 25.1262 605.839 24.3644L609.967 26.7236C609.156 28.1736 608.013 29.3409 606.539 30.2257C605.064 31.0858 603.43 31.5159 601.636 31.5159ZM627.161 28.7143C625.269 30.582 622.958 31.5159 620.231 31.5159C617.503 31.5159 615.193 30.582 613.3 28.7143C611.432 26.8219 610.499 24.5118 610.499 21.7839C610.499 19.056 611.432 16.7582 613.3 14.8904C615.193 12.9981 617.503 12.0519 620.231 12.0519C622.958 12.0519 625.269 12.9981 627.161 14.8904C629.053 16.7582 629.999 19.056 629.999 21.7839C629.999 24.5118 629.053 26.8219 627.161 28.7143ZM616.655 25.4334C617.613 26.3919 618.805 26.8711 620.231 26.8711C621.656 26.8711 622.848 26.3919 623.806 25.4334C624.765 24.475 625.244 23.2585 625.244 21.7839C625.244 20.3094 624.765 19.0929 623.806 18.1344C622.848 17.176 621.656 16.6968 620.231 16.6968C618.805 16.6968 617.613 17.176 616.655 18.1344C615.721 19.0929 615.254 20.3094 615.254 21.7839C615.254 23.2585 615.721 24.475 616.655 25.4334ZM637.363 15.7383C637.805 14.5587 638.53 13.6739 639.538 13.0841C640.57 12.4943 641.713 12.1994 642.966 12.1994V17.5077C641.516 17.3357 640.214 17.6306 639.059 18.3925C637.928 19.1543 637.363 20.42 637.363 22.1894V30.9998H632.607V12.568H637.363V15.7383ZM648.344 23.7377C648.983 26.0478 650.716 27.2029 653.542 27.2029C655.361 27.2029 656.737 26.5885 657.671 25.3597L661.504 27.5715C659.686 30.2011 657.007 31.5159 653.468 31.5159C650.421 31.5159 647.976 30.5943 646.132 28.7511C644.289 26.9079 643.368 24.5855 643.368 21.7839C643.368 19.0069 644.277 16.6968 646.096 14.8536C647.914 12.9858 650.249 12.0519 653.1 12.0519C655.803 12.0519 658.027 12.9858 659.772 14.8536C661.541 16.7213 662.426 19.0314 662.426 21.7839C662.426 22.3983 662.365 23.0496 662.242 23.7377H648.344ZM648.27 20.0513H657.671C657.4 18.798 656.835 17.8641 655.975 17.2497C655.139 16.6353 654.181 16.3281 653.1 16.3281C651.822 16.3281 650.765 16.6599 649.929 17.3234C649.094 17.9624 648.541 18.8717 648.27 20.0513Z" fill="#1C9CEA"/>
<defs>
<linearGradient id="paint0_linear_623_10" x1="-11" y1="63.9991" x2="1241" y2="63.9993" gradientUnits="userSpaceOnUse">
<stop stop-color="#FF3030"/>
<stop offset="0.5" stop-color="white"/>
<stop offset="1" stop-color="#6EDA53"/>
</linearGradient>
</defs>
</svg>
